PathFileType	4	(X/Y/Z)	C:/Users/beibeiliu/ov580/test_trc/User2\sequence.29_training_dense_left.trc
DataRate	CameraRate	NumFrames	NumMarkers	Units	OrigDataRate	OrigDataStartFrame	OrigNumFrames
120	120	17	19	mm	120	1	365
Frame#	Time	ThumbCMC			ThumbMCP			ThumbIP			ThumbTip			IndexMCP			IndexPIP			IndexTip			MiddleMCP			MiddlePIP			MiddleTip			RingMCP			RingPIP			RingTip			PinkyMCP			PinkyPIP			PinkyTip			BackHand1			BackHand2			BackHand3	
		X0	Y0	Z0	X1	Y1	Z1	X2	Y2	Z2	X3	Y3	Z3	X4	Y4	Z4	X5	Y5	Z5	X6	Y6	Z6	X7	Y7	Z7	X8	Y8	Z8	X9	Y9	Z9	X10	Y10	Z10	X11	Y11	Z11	X12	Y12	Z12	X13	Y13	Z13	X14	Y14	Z14	X15	Y15	Z15	X16	Y16	Z16	X17	Y17	Z17	X18	Y18	Z18	
0	0	-148.905	-54.7489	118.69	-129.581	-68.3002	99.6959	-105.828	-78.5135	75.6497	-92.5964	-90.6107	53.7919	-169.881	-46.4126	37.2224	-161.984	-48.4389	10.563	-156.953	-51.3724	-22.1687	-198.466	-45.5597	29.856	-202.417	-47.8485	-2.16386	-207.482	-53.5412	-33.4473	-223.122	-54.1758	35.5932	-230.107	-57.165	13.2648	-236.532	-62.9947	-14.8717	-245.234	-65.2239	57.1269	-253.777	-68.3456	36.6937	-261.135	-65.4148	11.5582	-218.444	-42.1031	89.7161	-217.653	-33.6862	126.714	-183.969	-32.6025	103.77	
1	0.00833333	-150.421	-56.1011	116.328	-128.756	-68.0945	98.2391	-110.908	-80.0903	74.4428	-92.9915	-91.9471	54.7768	-170.225	-46.3903	35.4844	-163.29	-47.9382	5.98573	-158.872	-52.4533	-23.5261	-197.992	-45.5179	27.2022	-201.365	-47.6728	0.149351	-207.741	-53.6068	-33.6231	-227.067	-54.124	38.3146	-228.956	-57.6373	12.5156	-236.481	-63.2688	-20.2612	-241.714	-65.7808	60.3382	-255.96	-67.5239	31.9345	-263.438	-65.0806	13.3848	-220.389	-43.442	93.6229	-216.848	-33.1489	123.711	-183.109	-33.9248	101.954	
2	0.0166667	-150.6	-57.7721	119.128	-130.638	-69.6463	101.579	-106.912	-81.7786	72.7431	-95.2027	-92.8088	59.7082	-164.685	-47.8646	33.3427	-163.45	-49.9488	9.0956	-155.098	-52.6132	-17.9468	-200.098	-46.8282	31.4794	-201.431	-49.5248	-0.157098	-204.071	-53.9902	-31.2225	-221.514	-55.1343	40.2738	-229.693	-60.0737	8.93918	-236.434	-65.7134	-18.3735	-243.306	-66.2961	60.2842	-255.024	-69.6402	34.7784	-261.443	-68.7208	12.8333	-221.232	-44.5768	93.8997	-216.278	-36.5443	124.462	-184.722	-35.5118	105.771	
3	0.025	-147.7	-55.1194	113.552	-131.538	-68.4191	97.5234	-109.18	-80.1371	73.8976	-94.441	-91.1966	60.8738	-167.847	-45.4199	32.9685	-159.002	-46.4524	5.62304	-160.424	-51.0772	-18.169	-198.16	-44.118	32.177	-202.204	-46.9386	-2.94908	-206.924	-52.4643	-32.5608	-222.132	-52.6114	36.9879	-230.707	-57.6098	9.76478	-233.574	-62.5005	-14.6594	-238.87	-64.8263	59.7751	-250.715	-66.0711	33.3584	-261.604	-64.4097	12.7784	-220.049	-43.4778	90.5588	-220.626	-34.6446	123.203	-183.963	-32.7535	102.179	
4	0.0333333	-151.753	-54.3811	117.076	-129.79	-67.2771	95.6602	-106.109	-78.4963	75.7655	-91.1836	-89.9015	58.9849	-164.973	-41.8581	36.6573	-160.171	-43.5115	10.38	-154.333	-47.3997	-17.2875	-195.986	-40.1315	26.4896	-198.771	-44.8458	-5.37074	-203.297	-48.964	-31.3789	-225.937	-52.2794	38.3497	-228.831	-54.941	7.78162	-234.851	-61.7371	-19.2001	-243.94	-64.0696	57.8858	-247.885	-65.4052	33.5022	-260.115	-62.8878	11.5831	-220.946	-40.7426	91.2627	-215.31	-32.8098	121.661	-184.769	-32.1813	102.61	
5	0.0416667	-150.389	-52.0968	113.554	-130.108	-65.0237	96.6927	-107.501	-76.697	71.7823	-90.5594	-88.2642	57.3868	-163.49	-37.9811	38.7046	-160.918	-41.0376	6.64685	-153.061	-45.1958	-16.5728	-199.306	-38.0947	28.7223	-198.63	-39.8257	-1.80788	-204.796	-46.3264	-31.7589	-225.308	-49.9119	38.8788	-230.088	-52.8236	8.94636	-233.632	-57.8356	-15.7308	-239.973	-61.9621	57.7322	-245.351	-64.4715	35.0845	-257.167	-63.8012	11.4443	-217.259	-39.494	95.5294	-217.757	-33.8964	125.141	-181.77	-29.4138	105.263	
6	0.05	-147.894	-50.4112	114.977	-127.412	-64.8055	96.7232	-109.529	-78.1488	76.2036	-94.5447	-88.5217	57.5429	-166.559	-34.7715	34.4898	-157.451	-37.1229	12.432	-154.197	-43.2921	-15.8355	-200.176	-35.1258	29.7932	-197.969	-35.8471	1.91771	-201.864	-40.7292	-32.5463	-219.762	-46.9082	41.3781	-227.145	-49.7966	12.3483	-228.76	-52.4706	-19.5649	-240.917	-62.444	58.12	-247.593	-62.956	30.1995	-255.25	-60.8604	9.61418	-216.22	-41.7066	97.2181	-220.116	-35.8388	128.516	-186.347	-27.5332	108.87	
7	0.0583333	-149.211	-46.1935	119.549	-128.911	-61.6236	99.0509	-106.737	-73.4145	71.3344	-93.4471	-85.2265	55.6023	-166.162	-26.9813	36.2411	-155.88	-30.6062	7.91066	-154.149	-37.4425	-16.1708	-198.739	-28.1017	30.253	-198.772	-28.8166	0.9442	-197.021	-33.2222	-35.4433	-220.038	-40.8185	39.5051	-228.992	-44.4176	10.9912	-229.17	-47.5786	-17.0837	-240.78	-56.8304	54.2886	-244.69	-57.9647	31.4865	-253.364	-55.3614	4.11493	-222.682	-39.6975	96.9392	-221.769	-34.4903	126.368	-185.564	-22.3195	108.588	
8	0.0666667	-148.329	-46.2775	117.204	-128.305	-60.5143	95.8601	-110.805	-72.2029	71.0964	-96.7861	-83.1449	48.8538	-164.283	-23.1609	39.5879	-154.492	-26.3727	7.89635	-144.931	-35.2576	-18.4365	-196.221	-23.8842	34.3946	-198.918	-24.3158	-1.93408	-196.888	-27.6494	-32.1865	-219.994	-37.2011	37.9453	-225.623	-39.1511	10.9431	-222.568	-41.4444	-20.6354	-237.795	-55.6561	57.4625	-241.908	-54.3382	31.2558	-250.676	-51.4053	4.92835	-218.611	-38.0591	95.1636	-221.276	-35.922	129.473	-185.827	-24.0993	110.744	
9	0.075	-148.832	-47.5828	119.72	-122.961	-60.8708	96.9238	-105.683	-71.8245	72.1636	-100.259	-83.9999	50.1412	-160.168	-21.1374	40.4007	-154.823	-23.6548	13.693	-146.142	-32.7786	-14.9402	-192.417	-20.3721	33.6074	-192.419	-19.3516	2.03543	-193.483	-23.2304	-29.0734	-214.619	-33.5061	37.1873	-223.627	-36.469	13.1031	-220.948	-39.1105	-18.165	-230.909	-52.9088	57.1486	-240.782	-52.2402	28.2556	-245.504	-49.0644	4.99305	-219.39	-37.6804	96.7036	-219.482	-35.3984	126.532	-183.1	-23.7181	113.469	
10	0.0833333	-145.291	-46.3386	117.87	-124.332	-60.4277	96.1877	-107.775	-71.81	67.6957	-99.3963	-82.1468	43.9282	-160.223	-18.9707	39.8373	-149.614	-21.6053	13.9795	-143.839	-34.3436	-15.6296	-192.099	-16.9196	32.9836	-191.471	-16.2519	3.99978	-195.361	-19.8154	-28.0548	-218.45	-33.7277	39.526	-221.226	-32.8731	12.7708	-218.81	-33.9536	-19.4776	-229.316	-50.2462	55.8261	-238.032	-48.3479	28.0122	-242.921	-45.8242	4.66932	-217.659	-36.2245	97.5025	-217.123	-36.1775	126.007	-183.917	-22.5695	113.634	
11	0.0916667	-149.34	-43.7777	118.118	-123.347	-56.8594	94.604	-108.769	-67.8187	65.0904	-107.319	-78.273	41.2585	-159.078	-11.9499	38.5833	-149.342	-18.1949	10.2475	-144.919	-33.4441	-12.092	-192.848	-9.89476	35.3121	-194.574	-8.07478	1.06065	-193.965	-11.4336	-32.7613	-217.096	-26.0852	40.0304	-217.808	-24.2467	11.654	-219.699	-26.972	-17.6209	-229.449	-41.0289	48.8702	-235.042	-42.0619	27.2359	-244.415	-39.0945	0.78939	-218.543	-28.4447	94.7533	-220.441	-31.4649	126.89	-181.313	-17.8204	111.281	
12	0.1	-150.426	-41.4683	113.175	-130.557	-57.0805	90.7022	-112.258	-68.4212	61.0442	-109.837	-77.4683	35.7605	-158.175	-11.6904	36.989	-147.286	-21.1218	11.0534	-143.46	-41.7404	-7.91783	-191.31	-7.27914	33.2253	-193.274	-6.76689	-0.788702	-193.938	-10.1557	-29.391	-218.57	-23.9816	37.7976	-215.873	-21.0635	7.67096	-216.677	-24.0259	-20.14	-232.039	-42.9247	51.9163	-236.106	-40.8217	26.5681	-241.489	-34.9157	-1.51144	-214.518	-28.5083	92.673	-218.553	-32.475	128.414	-184.445	-18.691	113.371	
13	0.108333	-149.741	-39.8227	116.351	-127.877	-53.7331	88.0138	-116.244	-64.7591	56.4989	-118.02	-75.4472	30.9601	-162.95	-9.98831	38.8915	-150.269	-21.6279	12.9171	-143.47	-53.0783	-2.90216	-193.318	-3.15218	31.14	-190.574	-3.14128	-0.649527	-189.366	-7.15569	-29.1559	-216.657	-18.1387	35.5575	-217.816	-17.7561	10.8072	-215.102	-19.057	-19.0175	-230.663	-35.2304	48.0521	-237.959	-35.1948	20.5651	-239.738	-30.4434	-2.3985	-216.543	-25.8422	92.3162	-220.327	-27.6208	125.9	-186.74	-13.2135	115.868	
14	0.116667	-148.958	-38.0693	116.158	-129.768	-53.2164	90.4761	-118.74	-64.5924	57.1475	-124.588	-73.4827	31.1715	-162.388	-11.866	36.3203	-151.841	-28.2431	13.5628	-145.594	-60.5965	5.78558	-192.025	-3.42342	35.0203	-189.151	-2.76305	1.47784	-188.425	-9.2377	-34.0426	-216.398	-17.2888	37.1433	-218.108	-16.018	8.98545	-213.788	-17.5781	-17.9591	-235.046	-36.3521	48.7314	-238.915	-34.3077	25.8351	-242.993	-28.7943	-3.71949	-221.37	-26.579	95.5855	-219.438	-29.996	125.339	-188.426	-13.5296	113.673	
15	0.125	-149.812	-40.0515	115.583	-132.297	-53.4354	86.6773	-122.132	-62.7943	51.2617	-126.033	-73.7765	29.8371	-161.024	-13.9482	38.332	-148.858	-33.302	15.2452	-148.51	-69.6044	9.56887	-195.308	-5.1451	35.8703	-188.213	-3.26381	-1.07131	-187.242	-9.2655	-30.1978	-218.365	-18.5574	39.4764	-217.629	-16.3215	11.164	-216.291	-18.999	-18.9002	-235.867	-38.1997	50.2984	-237.751	-34.3275	24.8316	-241.031	-28.8483	-1.74011	-218.729	-27.1548	93.1358	-220.326	-31.0587	126.52	-187.04	-12.0525	112.178	
16	0.133333	-150.277	-39.7042	116.682	-131.944	-51.8589	83.2289	-124.821	-61.694	53.0264	-131.099	-69.3048	24.9011	-164.205	-14.1942	39.411	-154.482	-37.7861	14.2757	-150.154	-68.6446	11.3865	-197.843	-6.65441	36.6662	-194.514	-4.47029	0.37208	-190.801	-10.0769	-30.1105	-216.548	-17.2268	38.1829	-221.633	-15.5863	8.79478	-218.143	-17.41	-22.9812	-235.452	-37.7354	49.1431	-239.756	-34.618	25.5302	-242.792	-30.2619	0.300549	-220.625	-28.305	97.3564	-220.813	-29.3346	125.28	-189.694	-13.1543	111.324	
